<mxfile host="app.diagrams.net" modified="2023-06-15T17:36:41.127Z" agent="Mozilla/5.0 (Windows NT 10.0; Win64; x64) AppleWebKit/537.36 (KHTML, like Gecko) Chrome/113.0.0.0 Safari/537.36" etag="-SzUg_-sPOPmj-u_32uA" version="21.3.8" type="github">
  <diagram name="第 1 页" id="PbRfWuxGKFb0lXcP3tOV">
    <mxGraphModel dx="1050" dy="625" grid="1" gridSize="10" guides="1" tooltips="1" connect="1" arrows="1" fold="1" page="1" pageScale="1" pageWidth="827" pageHeight="1169" math="0" shadow="0">
      <root>
        <mxCell id="0" />
        <mxCell id="1" parent="0" />
        <mxCell id="5uqvr3K4V6anRMqf3P03-5" value="B" style="shape=umlActor;verticalLabelPosition=bottom;verticalAlign=top;html=1;" vertex="1" parent="1">
          <mxGeometry x="650" y="190" width="30" height="60" as="geometry" />
        </mxCell>
        <mxCell id="5uqvr3K4V6anRMqf3P03-17" value="" style="group" vertex="1" connectable="0" parent="1">
          <mxGeometry x="80" y="360" width="340" height="190" as="geometry" />
        </mxCell>
        <mxCell id="5uqvr3K4V6anRMqf3P03-16" value="" style="rounded=0;whiteSpace=wrap;html=1;" vertex="1" parent="5uqvr3K4V6anRMqf3P03-17">
          <mxGeometry width="340" height="190" as="geometry" />
        </mxCell>
        <mxCell id="5uqvr3K4V6anRMqf3P03-15" value="" style="group" vertex="1" connectable="0" parent="5uqvr3K4V6anRMqf3P03-17">
          <mxGeometry x="40" y="30" width="240" height="140" as="geometry" />
        </mxCell>
        <mxCell id="5uqvr3K4V6anRMqf3P03-3" value="设备" style="verticalAlign=top;align=left;shape=cube;size=10;direction=south;fontStyle=0;html=1;boundedLbl=1;spacingLeft=5;whiteSpace=wrap;" vertex="1" parent="5uqvr3K4V6anRMqf3P03-15">
          <mxGeometry width="130" height="140" as="geometry" />
        </mxCell>
        <mxCell id="5uqvr3K4V6anRMqf3P03-4" value="信息" style="verticalAlign=top;align=center;shape=cube;size=10;direction=south;html=1;boundedLbl=1;spacingLeft=5;whiteSpace=wrap;" vertex="1" parent="5uqvr3K4V6anRMqf3P03-3">
          <mxGeometry width="100" height="80" relative="1" as="geometry">
            <mxPoint x="10" y="50" as="offset" />
          </mxGeometry>
        </mxCell>
        <mxCell id="5uqvr3K4V6anRMqf3P03-8" value="信息" style="html=1;align=center;verticalAlign=top;rounded=1;absoluteArcSize=1;arcSize=10;dashed=1;whiteSpace=wrap;" vertex="1" parent="5uqvr3K4V6anRMqf3P03-15">
          <mxGeometry x="160" y="50" width="80" height="90" as="geometry" />
        </mxCell>
        <mxCell id="5uqvr3K4V6anRMqf3P03-20" value="" style="group" vertex="1" connectable="0" parent="1">
          <mxGeometry x="80" y="140" width="200" height="140" as="geometry" />
        </mxCell>
        <mxCell id="5uqvr3K4V6anRMqf3P03-18" value="" style="rounded=0;whiteSpace=wrap;html=1;" vertex="1" parent="5uqvr3K4V6anRMqf3P03-20">
          <mxGeometry width="200" height="140" as="geometry" />
        </mxCell>
        <mxCell id="5uqvr3K4V6anRMqf3P03-19" value="" style="group" vertex="1" connectable="0" parent="5uqvr3K4V6anRMqf3P03-20">
          <mxGeometry x="30" y="30" width="130" height="90" as="geometry" />
        </mxCell>
        <mxCell id="5uqvr3K4V6anRMqf3P03-2" value="主体A" style="shape=umlActor;verticalLabelPosition=bottom;verticalAlign=top;html=1;" vertex="1" parent="5uqvr3K4V6anRMqf3P03-19">
          <mxGeometry x="100" y="15" width="30" height="60" as="geometry" />
        </mxCell>
        <mxCell id="5uqvr3K4V6anRMqf3P03-13" value="健康" style="html=1;align=center;verticalAlign=top;rounded=1;absoluteArcSize=1;arcSize=10;dashed=1;whiteSpace=wrap;" vertex="1" parent="5uqvr3K4V6anRMqf3P03-19">
          <mxGeometry width="80" height="90" as="geometry" />
        </mxCell>
        <mxCell id="5uqvr3K4V6anRMqf3P03-21" value="" style="shape=flexArrow;endArrow=classic;html=1;rounded=0;exitX=0.25;exitY=1;exitDx=0;exitDy=0;entryX=0.145;entryY=-0.008;entryDx=0;entryDy=0;entryPerimeter=0;width=5;" edge="1" parent="1" source="5uqvr3K4V6anRMqf3P03-18" target="5uqvr3K4V6anRMqf3P03-16">
          <mxGeometry width="50" height="50" relative="1" as="geometry">
            <mxPoint x="210" y="330" as="sourcePoint" />
            <mxPoint x="260" y="280" as="targetPoint" />
          </mxGeometry>
        </mxCell>
        <mxCell id="5uqvr3K4V6anRMqf3P03-22" value="" style="shape=flexArrow;endArrow=classic;html=1;rounded=0;entryX=0.75;entryY=1;entryDx=0;entryDy=0;width=5;exitX=0.444;exitY=-0.004;exitDx=0;exitDy=0;exitPerimeter=0;" edge="1" parent="1" source="5uqvr3K4V6anRMqf3P03-16" target="5uqvr3K4V6anRMqf3P03-18">
          <mxGeometry width="50" height="50" relative="1" as="geometry">
            <mxPoint x="230" y="360" as="sourcePoint" />
            <mxPoint x="440" y="300" as="targetPoint" />
          </mxGeometry>
        </mxCell>
        <mxCell id="5uqvr3K4V6anRMqf3P03-23" value="" style="shape=flexArrow;endArrow=classic;html=1;rounded=0;entryX=1;entryY=0.5;entryDx=0;entryDy=0;exitX=0;exitY=0.3333333333333333;exitDx=0;exitDy=0;exitPerimeter=0;width=5;" edge="1" parent="1" source="5uqvr3K4V6anRMqf3P03-5" target="5uqvr3K4V6anRMqf3P03-18">
          <mxGeometry width="50" height="50" relative="1" as="geometry">
            <mxPoint x="390" y="350" as="sourcePoint" />
            <mxPoint x="440" y="300" as="targetPoint" />
          </mxGeometry>
        </mxCell>
        <mxCell id="5uqvr3K4V6anRMqf3P03-24" value="" style="shape=flexArrow;endArrow=classic;html=1;rounded=0;exitX=1;exitY=0.75;exitDx=0;exitDy=0;width=5;entryX=0;entryY=1;entryDx=0;entryDy=0;entryPerimeter=0;" edge="1" parent="1" source="5uqvr3K4V6anRMqf3P03-18" target="5uqvr3K4V6anRMqf3P03-5">
          <mxGeometry width="50" height="50" relative="1" as="geometry">
            <mxPoint x="650" y="200" as="sourcePoint" />
            <mxPoint x="440" y="370" as="targetPoint" />
          </mxGeometry>
        </mxCell>
      </root>
    </mxGraphModel>
  </diagram>
</mxfile>
